<?xml version="1.0" encoding="UTF-8"?>
<svg fill="none" viewBox="0 0 22 19" xmlns="http://www.w3.org/2000/svg">
<path d="m21.75 1c0-0.19891-0.079-0.38968-0.2196-0.53033-0.1407-0.14065-0.3315-0.21967-0.5304-0.21967-4.1325 0-8.3728 4.6603-10.728 7.7466-0.84104-0.25758-1.7308-0.31432-2.5978-0.16567s-1.687 0.49855-2.3942 1.0216c-0.70721 0.52304-1.2819 1.2046-1.6779 1.9901-0.39601 0.7854-0.6023 1.6528-0.60229 2.5324 0 2.895-1.8319 4.1934-1.9191 4.2534-0.13304 0.0899-0.23374 0.22-0.2873 0.3714-0.053561 0.1513-0.057152 0.3158-0.010244 0.4694 0.046908 0.1535 0.14184 0.2879 0.27084 0.3835 0.12899 0.0955 0.28524 0.1472 0.44578 0.1473h7.125c0.87962 0 1.747-0.2063 2.5325-0.6023 0.7854-0.396 1.467-0.9707 1.9901-1.6779 0.523-0.7072 0.8729-1.5272 1.0216-2.3942 0.1486-0.867 0.0919-1.7567-0.1657-2.5978 3.0872-2.355 7.7465-6.5953 7.7465-10.728zm-10.086 7.6453c0.3213-0.41625 0.6366-0.80844 0.9459-1.1766 0.7573 0.5116 1.4094 1.1637 1.921 1.9209-0.3688 0.30875-0.761 0.62411-1.1766 0.94591-0.437-0.67702-1.0132-1.2532-1.6903-1.6903zm4.0031-0.25125c-0.5662-0.79894-1.2635-1.4963-2.0625-2.0625 2.9794-3.2372 5.2266-4.2188 6.5532-4.4916-0.2672 1.3275-1.2535 3.5747-4.4907 6.5541z" fill="currentColor"/>
</svg>
