<?xml version="1.0" encoding="UTF-8"?>
<svg viewBox="0 0 24 24" xmlns="http://www.w3.org/2000/svg">
<path d="m15.75 15.75h-14.25c-0.13093 3e-4 -0.25965-0.0337-0.37337-0.0986-0.11371-0.0649-0.20846-0.1584-0.27482-0.2713-0.066362-0.1128-0.10202-0.2411-0.10344-0.372s0.031468-0.2599 0.095377-0.3742l7.125-12.75c0.06507-0.11655 0.16006-0.21361 0.27518-0.28118s0.24618-0.1032 0.37966-0.1032 0.26454 0.03563 0.37966 0.1032 0.21011 0.16463 0.27518 0.28118l7.125 12.75c0.0638 0.1141 0.0967 0.2428 0.0954 0.3735s-0.0367 0.2587-0.1027 0.3715-0.1604 0.2064-0.2737 0.2715c-0.1133 0.065-0.2417 0.0994-0.3724 0.0996z" fill="currentColor"/>
<path d="m15.75 7.5c-0.5129-1.1e-4 -1.0245 0.05203-1.5268 0.15563l3.4908 6.2471c0.1913 0.3424 0.2898 0.7289 0.2856 1.1211-0.0041 0.3922-0.1107 0.7765-0.3092 1.1149-0.1985 0.3383-0.482 0.6188-0.8224 0.8137-0.3404 0.195-0.7258 0.2976-1.118 0.2976h-7.1564c0.41583 1.3223 1.19 2.5034 2.2364 3.4124 1.0465 0.9089 2.3244 1.51 3.6918 1.7367 1.3675 0.2266 2.771 0.0699 4.0547-0.4529 1.2838-0.5227 2.3976-1.391 3.2177-2.5084 0.8202-1.1174 1.3147-2.4402 1.4285-3.8217 0.1139-1.3814-0.1573-2.7673-0.7834-4.004-0.6261-1.2366-1.5827-2.2755-2.7635-3.0014-1.1808-0.72589-2.5397-1.1104-3.9258-1.1107z" fill="currentColor"/>
</svg>
