<svg xmlns="http://www.w3.org/2000/svg" width="20" height="20" fill="none">
<path fill="currentColor" d="M3.75 1.25V5h5V1.25C8.75.559 8.191 0 7.5 0H5c-.691 0-1.25.559-1.25 1.25Zm0 5C1.68 6.25 0 7.93 0 10v8.125C0 19.16.84 20 1.875 20h8.75c1.035 0 1.875-.84 1.875-1.875V10c0-2.07-1.68-3.75-3.75-3.75h-5Zm2.5 10a3.124 3.124 0 1 1 0-6.25 3.124 3.124 0 1 1 0 6.25ZM15 1.875a.171.171 0 0 0-.086-.14L13.75 1.25 13.266.086A.171.171 0 0 0 13.125 0a.171.171 0 0 0-.14.086L12.5 1.25l-1.164.484a.171.171 0 0 0-.086.141c0 .055.04.117.086.14L12.5 2.5l.484 1.164a.171.171 0 0 0 .141.086c.055 0 .117-.04.14-.086L13.75 2.5l1.164-.484A.171.171 0 0 0 15 1.875Zm2.984 1.79a.171.171 0 0 0 .141.085c.055 0 .117-.04.14-.086L18.75 2.5l1.164-.484A.171.171 0 0 0 20 1.875a.171.171 0 0 0-.086-.14L18.75 1.25 18.266.086A.171.171 0 0 0 18.125 0a.171.171 0 0 0-.14.086L17.5 1.25l-1.164.484a.171.171 0 0 0-.086.141c0 .055.04.117.086.14L17.5 2.5l.484 1.164Zm.282 3.92a.171.171 0 0 0-.141-.085.171.171 0 0 0-.14.086L17.5 8.75l-1.164.484a.171.171 0 0 0-.086.141c0 .055.04.117.086.14L17.5 10l.484 1.164a.171.171 0 0 0 .141.086c.055 0 .117-.04.14-.086L18.75 10l1.164-.484A.171.171 0 0 0 20 9.375a.171.171 0 0 0-.086-.14L18.75 8.75l-.484-1.164Zm-.766-1.96a.171.171 0 0 0-.086-.14L16.25 5l-.484-1.164a.171.171 0 0 0-.141-.086.171.171 0 0 0-.14.086L15 5l-1.164.484a.171.171 0 0 0-.086.141c0 .055.04.117.086.14L15 6.25l.484 1.164a.171.171 0 0 0 .141.086c.055 0 .117-.04.14-.086l.485-1.164 1.164-.484a.171.171 0 0 0 .086-.141Z"/>
</svg>