<?xml version="1.0" encoding="UTF-8"?>
<svg viewBox="0 0 20 20" xmlns="http://www.w3.org/2000/svg">
<path d="m0 1.1111c0-0.61365 0.49746-1.1111 1.1111-1.1111h17.778c0.6137 0 1.1111 0.49746 1.1111 1.1111v3.3333c0 0.61365-0.4974 1.1111-1.1111 1.1111-0.6136 0-1.1111-0.49746-1.1111-1.1111v-2.2222h-15.556v2.2222c0 0.61365-0.49746 1.1111-1.1111 1.1111-0.61365 0-1.1111-0.49746-1.1111-1.1111v-3.3333z" clip-rule="evenodd" fill="currentColor" fill-rule="evenodd"/>
<path d="m5.5552 18.889c0-0.6137 0.49746-1.1111 1.1111-1.1111h6.6667c0.6136 0 1.1111 0.4974 1.1111 1.1111s-0.4975 1.1111-1.1111 1.1111h-6.6667c-0.61365 0-1.1111-0.4974-1.1111-1.1111z" clip-rule="evenodd" fill="currentColor" fill-rule="evenodd"/>
<path d="m10 0c0.6136 0 1.1111 0.49746 1.1111 1.1111v17.778c0 0.6137-0.4975 1.1111-1.1111 1.1111-0.61368 0-1.1111-0.4974-1.1111-1.1111v-17.778c0-0.61365 0.49746-1.1111 1.1111-1.1111z" clip-rule="evenodd" fill="currentColor" fill-rule="evenodd"/>
</svg>
