<?xml version="1.0" encoding="UTF-8"?>
<svg fill="none" viewBox="0 0 21 21" xmlns="http://www.w3.org/2000/svg">
<path d="m15.082 13.334h-0.9217l-0.3267-0.315c1.1829-1.372 1.833-3.1235 1.8317-4.935 0-1.4998-0.4448-2.966-1.278-4.2131-0.8333-1.2471-2.0177-2.219-3.4033-2.793-1.3857-0.57397-2.9104-0.72414-4.3815-0.43154-1.471 0.2926-2.8222 1.0148-3.8828 2.0754-1.0605 1.0605-1.7828 2.4118-2.0754 3.8828-0.2926 1.471-0.14243 2.9958 0.43153 4.3814 0.57397 1.3857 1.5459 2.5701 2.793 3.4033 1.2471 0.8333 2.7132 1.278 4.2131 1.278 1.8783 0 3.605-0.6883 4.935-1.8316l0.315 0.3266v0.9217l5.8333 5.8217 1.7383-1.7384-5.8216-5.8333zm-7 0c-2.905 0-5.25-2.345-5.25-5.25 0-2.905 2.345-5.25 5.25-5.25 2.905 0 5.25 2.345 5.25 5.25 0 2.905-2.345 5.25-5.25 5.25zm0.58333-8.1666h-1.1667v2.3333h-2.3333v1.1667h2.3333v2.3334h1.1667v-2.3334h2.3333v-1.1667h-2.3333v-2.3333z" fill="currentColor"/>
</svg>
